<svg width="250" height="250" viewBox="0 0 250 250" fill="none" xmlns="http://www.w3.org/2000/svg">
<rect width="250" height="250" rx="5" fill="#EE9513"/>
<path d="M42.642 119.5V84.5909H51.0795V112.648H65.6023V119.5H42.642ZM77.9901 119.5H68.9219L80.7003 84.5909H91.9332L103.712 119.5H94.6435L86.4446 93.3864H86.1719L77.9901 119.5ZM76.7798 105.761H95.7344V112.17H76.7798V105.761ZM128.739 95.9943C128.545 95.2784 128.261 94.6477 127.886 94.1023C127.511 93.5455 127.051 93.0739 126.506 92.6875C125.96 92.3011 125.335 92.0114 124.631 91.8182C123.926 91.6136 123.153 91.5114 122.312 91.5114C120.619 91.5114 119.153 91.9205 117.915 92.7386C116.688 93.5568 115.739 94.75 115.068 96.3182C114.398 97.875 114.062 99.767 114.062 101.994C114.062 104.233 114.386 106.142 115.034 107.722C115.682 109.301 116.619 110.506 117.847 111.335C119.074 112.165 120.562 112.58 122.312 112.58C123.858 112.58 125.165 112.33 126.233 111.83C127.313 111.318 128.131 110.597 128.688 109.665C129.244 108.733 129.523 107.636 129.523 106.375L131.091 106.562H122.602V100.409H137.653V105.028C137.653 108.153 136.989 110.83 135.659 113.057C134.341 115.284 132.523 116.994 130.205 118.188C127.898 119.381 125.244 119.977 122.244 119.977C118.915 119.977 115.989 119.256 113.466 117.812C110.943 116.369 108.977 114.312 107.568 111.642C106.159 108.96 105.455 105.778 105.455 102.097C105.455 99.233 105.881 96.6932 106.733 94.4773C107.585 92.25 108.773 90.3636 110.295 88.8182C111.83 87.2727 113.602 86.1023 115.614 85.3068C117.636 84.5114 119.813 84.1136 122.142 84.1136C124.165 84.1136 126.045 84.4034 127.784 84.983C129.534 85.5625 131.08 86.3807 132.42 87.4375C133.773 88.4943 134.869 89.75 135.71 91.2045C136.551 92.6591 137.074 94.2557 137.278 95.9943H128.739ZM175.575 102.045C175.575 105.886 174.837 109.142 173.359 111.812C171.882 114.483 169.882 116.511 167.359 117.898C164.848 119.284 162.03 119.977 158.905 119.977C155.768 119.977 152.945 119.278 150.433 117.881C147.922 116.483 145.928 114.455 144.45 111.795C142.984 109.125 142.251 105.875 142.251 102.045C142.251 98.2045 142.984 94.9489 144.45 92.2784C145.928 89.608 147.922 87.5795 150.433 86.1932C152.945 84.8068 155.768 84.1136 158.905 84.1136C162.03 84.1136 164.848 84.8068 167.359 86.1932C169.882 87.5795 171.882 89.608 173.359 92.2784C174.837 94.9489 175.575 98.2045 175.575 102.045ZM166.95 102.045C166.95 99.7727 166.626 97.8523 165.979 96.2841C165.342 94.7159 164.422 93.5284 163.217 92.7216C162.024 91.9148 160.587 91.5114 158.905 91.5114C157.234 91.5114 155.797 91.9148 154.592 92.7216C153.388 93.5284 152.462 94.7159 151.814 96.2841C151.178 97.8523 150.859 99.7727 150.859 102.045C150.859 104.318 151.178 106.239 151.814 107.807C152.462 109.375 153.388 110.562 154.592 111.369C155.797 112.176 157.234 112.58 158.905 112.58C160.587 112.58 162.024 112.176 163.217 111.369C164.422 110.562 165.342 109.375 165.979 107.807C166.626 106.239 166.95 104.318 166.95 102.045ZM199.371 95.0568C199.257 93.8068 198.751 92.8352 197.854 92.142C196.967 91.4375 195.7 91.0852 194.053 91.0852C192.962 91.0852 192.053 91.2273 191.325 91.5114C190.598 91.7955 190.053 92.1875 189.689 92.6875C189.325 93.1761 189.138 93.7386 189.126 94.375C189.104 94.8977 189.206 95.358 189.433 95.7557C189.672 96.1534 190.013 96.5057 190.456 96.8125C190.911 97.108 191.456 97.3693 192.092 97.5966C192.729 97.8239 193.445 98.0227 194.24 98.1932L197.24 98.875C198.967 99.25 200.49 99.75 201.808 100.375C203.138 101 204.251 101.744 205.149 102.608C206.058 103.472 206.746 104.466 207.212 105.591C207.678 106.716 207.916 107.977 207.928 109.375C207.916 111.58 207.359 113.472 206.257 115.051C205.155 116.631 203.57 117.841 201.501 118.682C199.445 119.523 196.962 119.943 194.053 119.943C191.132 119.943 188.587 119.506 186.416 118.631C184.246 117.756 182.558 116.426 181.354 114.642C180.149 112.858 179.53 110.602 179.496 107.875H187.575C187.643 109 187.945 109.938 188.479 110.688C189.013 111.438 189.746 112.006 190.678 112.392C191.621 112.778 192.712 112.972 193.95 112.972C195.087 112.972 196.053 112.818 196.848 112.511C197.655 112.205 198.274 111.778 198.706 111.233C199.138 110.687 199.359 110.062 199.371 109.358C199.359 108.699 199.155 108.136 198.757 107.67C198.359 107.193 197.746 106.784 196.916 106.443C196.098 106.091 195.053 105.767 193.78 105.472L190.132 104.619C187.109 103.926 184.729 102.807 182.99 101.261C181.251 99.7045 180.388 97.6023 180.399 94.9545C180.388 92.7955 180.967 90.9034 182.138 89.2784C183.308 87.6534 184.928 86.3864 186.996 85.4773C189.064 84.5682 191.422 84.1136 194.07 84.1136C196.774 84.1136 199.121 84.5739 201.109 85.4943C203.109 86.4034 204.661 87.6818 205.763 89.3295C206.865 90.9773 207.428 92.8864 207.45 95.0568H199.371ZM42.1467 166.5V138.136H49.0021V149.521H60.1786V138.136H67.0202V166.5H60.1786V155.102H49.0021V166.5H42.1467ZM81.2505 166.902C79.0162 166.902 77.0957 166.445 75.4892 165.531C73.8919 164.607 72.6593 163.324 71.7914 161.68C70.9327 160.028 70.5034 158.112 70.5034 155.933C70.5034 153.745 70.9327 151.829 71.7914 150.185C72.6593 148.533 73.8919 147.249 75.4892 146.335C77.0957 145.412 79.0162 144.95 81.2505 144.95C83.4849 144.95 85.4007 145.412 86.998 146.335C88.6046 147.249 89.8372 148.533 90.6958 150.185C91.5637 151.829 91.9977 153.745 91.9977 155.933C91.9977 158.112 91.5637 160.028 90.6958 161.68C89.8372 163.324 88.6046 164.607 86.998 165.531C85.4007 166.445 83.4849 166.902 81.2505 166.902ZM81.2921 161.791C82.1046 161.791 82.7924 161.542 83.3556 161.043C83.9189 160.545 84.3482 159.852 84.6436 158.966C84.9483 158.08 85.1007 157.055 85.1007 155.891C85.1007 154.71 84.9483 153.675 84.6436 152.789C84.3482 151.903 83.9189 151.21 83.3556 150.712C82.7924 150.213 82.1046 149.964 81.2921 149.964C80.4519 149.964 79.7409 150.213 79.1593 150.712C78.5868 151.21 78.1483 151.903 77.8436 152.789C77.5481 153.675 77.4004 154.71 77.4004 155.891C77.4004 157.055 77.5481 158.08 77.8436 158.966C78.1483 159.852 78.5868 160.545 79.1593 161.043C79.7409 161.542 80.4519 161.791 81.2921 161.791ZM95.467 166.5V145.227H101.907V149.133H102.142C102.586 147.84 103.333 146.82 104.386 146.072C105.439 145.324 106.694 144.95 108.153 144.95C109.63 144.95 110.895 145.329 111.948 146.086C113 146.843 113.67 147.859 113.956 149.133H114.178C114.575 147.868 115.35 146.857 116.504 146.1C117.658 145.333 119.02 144.95 120.59 144.95C122.603 144.95 124.237 145.597 125.493 146.889C126.748 148.173 127.376 149.936 127.376 152.18V166.5H120.604V153.731C120.604 152.669 120.331 151.861 119.787 151.307C119.242 150.744 118.536 150.462 117.668 150.462C116.735 150.462 116.001 150.767 115.466 151.376C114.939 151.977 114.676 152.784 114.676 153.8V166.5H108.167V153.662C108.167 152.674 107.899 151.893 107.364 151.321C106.828 150.749 106.122 150.462 105.245 150.462C104.654 150.462 104.132 150.605 103.68 150.892C103.227 151.169 102.872 151.566 102.613 152.083C102.364 152.6 102.239 153.209 102.239 153.911V166.5H95.467ZM141.516 166.902C139.291 166.902 137.371 166.463 135.755 165.586C134.148 164.7 132.911 163.439 132.043 161.805C131.185 160.162 130.755 158.209 130.755 155.947C130.755 153.749 131.189 151.829 132.057 150.185C132.925 148.533 134.148 147.249 135.727 146.335C137.306 145.412 139.167 144.95 141.309 144.95C142.823 144.95 144.208 145.186 145.463 145.657C146.719 146.127 147.804 146.825 148.718 147.748C149.632 148.671 150.343 149.811 150.851 151.169C151.359 152.517 151.613 154.063 151.613 155.808V157.498H133.124V153.565H145.311C145.302 152.844 145.131 152.203 144.799 151.64C144.466 151.076 144.009 150.638 143.428 150.324C142.855 150.001 142.195 149.839 141.447 149.839C140.69 149.839 140.011 150.01 139.411 150.352C138.811 150.684 138.336 151.141 137.985 151.723C137.634 152.295 137.449 152.946 137.431 153.675V157.678C137.431 158.546 137.602 159.308 137.943 159.963C138.285 160.609 138.77 161.113 139.397 161.473C140.025 161.833 140.773 162.013 141.641 162.013C142.241 162.013 142.786 161.93 143.275 161.763C143.765 161.597 144.185 161.353 144.536 161.029C144.886 160.706 145.15 160.309 145.325 159.838L151.543 160.018C151.285 161.413 150.717 162.627 149.84 163.661C148.972 164.686 147.832 165.484 146.419 166.057C145.006 166.62 143.372 166.902 141.516 166.902ZM155.071 166.5V138.136H174.433V143.704H161.927V149.521H173.2V155.102H161.927V166.5H155.071ZM177.885 166.5V145.227H184.657V166.5H177.885ZM181.278 142.748C180.327 142.748 179.51 142.434 178.827 141.806C178.143 141.169 177.802 140.403 177.802 139.507C177.802 138.621 178.143 137.864 178.827 137.236C179.51 136.599 180.327 136.281 181.278 136.281C182.238 136.281 183.055 136.599 183.729 137.236C184.413 137.864 184.754 138.621 184.754 139.507C184.754 140.403 184.413 141.169 183.729 141.806C183.055 142.434 182.238 142.748 181.278 142.748ZM194.729 145.227L198.233 152.235L201.862 145.227H208.69L202.748 155.864L208.911 166.5H202.139L198.233 159.437L194.425 166.5H187.555L193.732 155.864L187.86 145.227H194.729Z" fill="black"/>
</svg>
